<svg width="22" height="22" viewBox="0 0 22 22" fill="none" xmlns="http://www.w3.org/2000/svg">
<g clip-path="url(#clip0_2860_8)">
<path d="M6.05825 1.84525C7.43254 0.660186 9.18534 0.00569046 11 0C14.6988 0 17.7691 2.75 18.1033 6.29612C20.2923 6.6055 22 8.43837 22 10.6879C22 13.1574 19.9403 15.125 17.4446 15.125H13.75C13.5677 15.125 13.3928 15.0526 13.2639 14.9236C13.1349 14.7947 13.0625 14.6198 13.0625 14.4375C13.0625 14.2552 13.1349 14.0803 13.2639 13.9514C13.3928 13.8224 13.5677 13.75 13.75 13.75H17.446C19.2211 13.75 20.625 12.3585 20.625 10.6879C20.625 9.01587 19.2225 7.62438 17.4446 7.62438H16.7571V6.93688C16.7585 3.88438 14.201 1.375 11 1.375C9.51483 1.38093 8.08066 1.91735 6.95613 2.8875C5.91525 3.784 5.37075 4.86475 5.37075 5.71313V6.32913L4.75887 6.3965C2.838 6.60687 1.375 8.184 1.375 10.0622C1.375 12.0794 3.06625 13.75 5.19887 13.75H8.25C8.43234 13.75 8.6072 13.8224 8.73614 13.9514C8.86507 14.0803 8.9375 14.2552 8.9375 14.4375C8.9375 14.6198 8.86507 14.7947 8.73614 14.9236C8.6072 15.0526 8.43234 15.125 8.25 15.125H5.19887C2.3485 15.125 0 12.8782 0 10.0622C0 7.63812 1.74075 5.63062 4.04525 5.12187C4.24187 3.93525 5.005 2.75275 6.05825 1.84525V1.84525Z" fill="white"/>
<path d="M10.5131 21.7993C10.577 21.8633 10.6529 21.9141 10.7364 21.9487C10.8199 21.9834 10.9095 22.0012 10.9999 22.0012C11.0903 22.0012 11.1799 21.9834 11.2634 21.9487C11.3469 21.9141 11.4228 21.8633 11.4866 21.7993L15.6116 17.6743C15.7407 17.5452 15.8133 17.3701 15.8133 17.1875C15.8133 17.0049 15.7407 16.8298 15.6116 16.7007C15.4825 16.5717 15.3075 16.4991 15.1249 16.4991C14.9423 16.4991 14.7672 16.5717 14.6381 16.7007L11.6874 19.6529V7.5625C11.6874 7.38016 11.615 7.2053 11.486 7.07636C11.3571 6.94743 11.1822 6.875 10.9999 6.875C10.8176 6.875 10.6427 6.94743 10.5138 7.07636C10.3848 7.2053 10.3124 7.38016 10.3124 7.5625V19.6529L7.36164 16.7007C7.23255 16.5717 7.05746 16.4991 6.87489 16.4991C6.69233 16.4991 6.51724 16.5717 6.38814 16.7007C6.25905 16.8298 6.18652 17.0049 6.18652 17.1875C6.18652 17.3701 6.25905 17.5452 6.38814 17.6743L10.5131 21.7993Z" fill="white"/>
</g>
<defs>
<clipPath id="clip0_2860_8">
<rect width="22" height="22" fill="white"/>
</clipPath>
</defs>
</svg>
