<svg width="66" height="57" viewBox="0 0 66 57" fill="none" xmlns="http://www.w3.org/2000/svg">
<path d="M3.56588 26.9438C5.04041 26.9438 6.23576 25.7484 6.23576 24.2739C6.23576 22.7993 5.04041 21.604 3.56588 21.604C2.09134 21.604 0.895996 22.7993 0.895996 24.2739C0.895996 25.7484 2.09134 26.9438 3.56588 26.9438Z" fill="#AC1116"/>
<path d="M62.7021 26.9438C64.1766 26.9438 65.372 25.7484 65.372 24.2739C65.372 22.7993 64.1766 21.604 62.7021 21.604C61.2276 21.604 60.0322 22.7993 60.0322 24.2739C60.0322 25.7484 61.2276 26.9438 62.7021 26.9438Z" fill="#AC1116"/>
<path d="M25.7626 1.22388H41.2203C40.5034 11.4394 44.9541 15.9348 47.269 16.9056L32.9314 42.6684L18.8179 16.9056C20.8341 16.1588 25.0458 12.1562 25.7626 2.11998" stroke="url(#paint0_linear_2614_293)" stroke-width="1.5" stroke-linecap="round" stroke-linejoin="round"/>
<path d="M20.1626 1H45.9254" stroke="#B8B8BA" stroke-width="1.5" stroke-linecap="round" stroke-linejoin="round"/>
<path d="M6.67478 53.1918H58.4705M3.58447 24.5166C3.58447 24.5166 5.15265 53.8639 32.9317 53.1918C60.7107 52.5197 62.727 24.5166 62.727 24.5166H3.58447Z" stroke="url(#paint1_linear_2614_293)" stroke-width="1.5"/>
<path d="M61.3827 55.8018C62.9481 55.8018 64.2171 54.5328 64.2171 52.9674C64.2171 51.4021 62.9481 50.1331 61.3827 50.1331C59.8173 50.1331 58.5483 51.4021 58.5483 52.9674C58.5483 54.5328 59.8173 55.8018 61.3827 55.8018Z" stroke="#AC1116" stroke-width="1.5"/>
<path d="M3.58439 55.8018C5.14978 55.8018 6.41878 54.5328 6.41878 52.9674C6.41878 51.4021 5.14978 50.1331 3.58439 50.1331C2.019 50.1331 0.75 51.4021 0.75 52.9674C0.75 54.5328 2.019 55.8018 3.58439 55.8018Z" stroke="#AC1116" stroke-width="1.5"/>
<path d="M35.9898 50.1331H29.873V56.2499H35.9898V50.1331Z" fill="white" stroke="#AC1116" stroke-width="1.5"/>
<defs>
<linearGradient id="paint0_linear_2614_293" x1="50.6294" y1="-9.75332" x2="22.1782" y2="39.084" gradientUnits="userSpaceOnUse">
<stop stop-color="#231F20"/>
<stop offset="1" stop-color="#231F20" stop-opacity="0"/>
</linearGradient>
<linearGradient id="paint1_linear_2614_293" x1="33.1557" y1="24.5166" x2="3.55992" y2="58.4026" gradientUnits="userSpaceOnUse">
<stop stop-color="#AC1116"/>
<stop offset="1" stop-color="#AC1116" stop-opacity="0"/>
</linearGradient>
</defs>
</svg>
