<svg width="200" height="200" viewBox="0 0 200 200" fill="none" xmlns="http://www.w3.org/2000/svg">
<path d="M167.108 76C166.575 76 165.692 76.8 165.167 77.6833C164.2 79.2666 165.342 80.2333 179.892 89.3166C188.533 94.7913 195.5 99.4583 195.325 99.8163C195.15 100.075 188.092 104.666 179.633 109.958C164.283 119.475 164.2 119.566 165.608 121.508C167.375 123.8 165.608 124.591 185.533 112.158L200 102.9V95.9333L183.858 85.9666C175.133 80.5 167.55 76.0916 167.108 76ZM33.0667 76.975C32.625 76.975 25.0417 81.475 16.3167 86.85L0 96.8163V103.783L16.225 113.925C25.225 119.475 32.8083 124.066 33.1583 124.066C33.5083 124.066 34.2167 123.266 34.925 122.3C35.9833 120.625 35.0917 119.916 20.1917 110.483C6 101.575 4.5 100.341 5.91667 99.3753C6.8 98.7583 13.5 94.6083 20.7333 90.1166C37.225 79.975 36.3417 80.675 35.0167 78.5583C34.4917 77.6833 33.6 76.8916 33.075 76.975H33.0667Z" fill="white"/>
<path d="M165.167 77.6833C165.692 76.8 166.575 76 167.108 76C167.55 76.0916 175.133 80.5 183.858 85.9666L200 95.9333V102.9L185.533 112.158C165.608 124.591 167.375 123.8 165.608 121.508C164.2 119.566 164.283 119.475 179.633 109.958C188.092 104.666 195.15 100.075 195.325 99.8163C195.5 99.4583 188.533 94.7913 179.892 89.3166C165.342 80.2333 164.2 79.2666 165.167 77.6833Z" fill="white"/>
<path d="M128.7 56L128.075 59.2583C127.108 65.4333 127.458 67.2 130.108 69.4916L132.666 71.6083L130.016 83.425C128.433 90.475 126.491 96.3833 125.258 98.325C124.2 100 122.966 102.466 122.7 103.791C122.258 105.375 120.758 106.966 118.466 108.375C116.441 109.525 112.466 112.608 109.65 115.083C107.4 117.108 105.85 118.35 105.008 118.883L102.258 121.058C101.551 122.107 101.019 123.263 100.683 124.483C100.491 125.375 100.6 125.966 100.883 126.4C101.158 126.816 101.633 127.108 102.283 127.291C103.052 127.472 103.844 127.536 104.633 127.483C106.417 127.361 108.183 127.048 109.9 126.55C110.483 126.391 110.941 126.241 111.341 126.108C111.958 125.35 113.383 123.916 115.908 121.425C122.608 114.816 125.166 111.2 122.525 112.175C121.55 112.525 121.991 111.641 123.666 109.875C127.2 106.433 129.225 101.233 133.458 84.925C136.808 72.05 136.808 71.8666 139.275 71.8666C140.433 71.8666 143.708 72.0666 143.708 72.0666V56H136.191H128.7ZM99.0163 83.5416C96.5833 83.525 91.35 87.2333 75.6833 100.025C75.0083 101.633 74.95 102.741 75.2583 103.458C75.4583 103.95 75.825 104.291 76.3333 104.541C76.8333 104.791 77.4833 104.941 78.2 105C79.625 105.125 81.3083 104.9 82.6666 104.633L83.5833 104.425C83.8971 104.004 84.3091 103.666 84.7833 103.441C85.75 102.908 89.8083 99.2083 93.8663 95.2416C101.008 88.0083 102.683 84.7416 99.7753 83.6833C99.5363 83.5884 99.2813 83.5403 99.0253 83.5416H99.0163ZM117.316 88.5666C115.175 88.625 111.316 91.1083 104.708 96.3833C101.391 99.075 99.2913 100.525 98.1663 100.825L93.8003 104.275C92.1583 107.275 91.9166 109.133 92.35 110.158C92.4584 110.411 92.6159 110.64 92.8133 110.831C93.0106 111.023 93.244 111.174 93.5 111.275C94.1363 111.526 94.8153 111.653 95.5003 111.65C97.1353 111.632 98.7613 111.394 100.333 110.941C101.152 110.721 101.961 110.466 102.758 110.175L103 110.075L103.441 109.841C104.275 108.766 106.191 106.741 108.591 104.408C116.175 97.0916 120.05 91.8916 119.258 89.95C118.9 89.0083 118.283 88.5333 117.316 88.5666ZM97.1163 97.5666C96.5003 97.6333 95.1163 98.7 92.625 100.883C89.025 104.066 85.1 105.9 83.7416 105.083C83.426 105.154 83.1093 105.221 82.7916 105.283C81.4083 105.558 79.6833 105.783 78.1416 105.658C77.4152 105.614 76.7033 105.436 76.0416 105.133C75.4176 104.848 74.9195 104.344 74.6416 103.716C74.3333 102.966 74.3333 102.033 74.6833 100.841L69.2666 105.291L57.0083 115.433V131.875L97.1753 100.233C97.1673 99.8873 97.2123 99.5412 97.3083 99.2083C97.6163 98.0916 97.6003 97.525 97.1163 97.575V97.5666ZM114.4 102.891C113.791 102.891 112.775 103.75 111.15 105.475C108.941 107.833 105.466 110.116 103.625 110.583L103.341 110.733C103.039 110.858 102.733 110.975 102.425 111.083C101.925 111.25 101.275 111.45 100.525 111.65C99.0253 112.058 97.1583 112.433 95.4913 112.391C94.7063 112.39 93.9273 112.238 93.2 111.941C92.514 111.659 91.9644 111.121 91.6666 110.441C91.1833 109.283 91.375 107.658 92.4333 105.35L57 133.258V143.3H72.5666L105.583 117.366C106.441 116.416 107.733 115.116 109.475 113.491C114.141 109.166 115.2 107.675 115.2 105.466C115.2 103.75 115.008 102.883 114.4 102.883V102.891ZM122.258 119.141L119.433 121.958C117.85 123.458 115.025 125.308 113.091 126.1L112.708 126.266L112.683 126.308L112.6 126.391C112.525 126.45 112.491 126.458 112.433 126.483C111.661 126.775 110.877 127.034 110.083 127.258C108.317 127.772 106.501 128.093 104.666 128.216C103.799 128.272 102.928 128.196 102.083 127.991C101.35 127.83 100.703 127.402 100.266 126.791C99.8663 126.175 99.7503 125.35 99.9753 124.333C100.154 123.609 100.419 122.91 100.766 122.25L74.125 143.3H109.558L113.791 138.45C119.608 131.666 122.258 126.816 122.258 122.666V119.141Z" fill="#AC1116"/>
</svg>
